<?xml version="1.0" encoding="UTF-8" standalone="no"?>
<!-- Created with Inkscape (http://www.inkscape.org/) -->

<svg
   width="120"
   height="120"
   viewBox="0 0 120 120"
   version="1.1"
   id="svg1"
   inkscape:version="1.3.2 (091e20ef0f, 2023-11-25, custom)"
   sodipodi:docname="draw.svg"
   xmlns:inkscape="http://www.inkscape.org/namespaces/inkscape"
   xmlns:sodipodi="http://sodipodi.sourceforge.net/DTD/sodipodi-0.dtd"
   xmlns="http://www.w3.org/2000/svg"
   xmlns:svg="http://www.w3.org/2000/svg">
  <sodipodi:namedview
     id="namedview1"
     pagecolor="#ffffff"
     bordercolor="#000000"
     borderopacity="0.25"
     inkscape:showpageshadow="2"
     inkscape:pageopacity="0.0"
     inkscape:pagecheckerboard="0"
     inkscape:deskcolor="#d1d1d1"
     inkscape:document-units="px"
     inkscape:zoom="4.8672517"
     inkscape:cx="63.588247"
     inkscape:cy="77.456443"
     inkscape:window-width="1920"
     inkscape:window-height="1015"
     inkscape:window-x="0"
     inkscape:window-y="34"
     inkscape:window-maximized="1"
     inkscape:current-layer="layer1" />
  <defs
     id="defs1">
    <inkscape:path-effect
       effect="powerstroke"
       id="path-effect6"
       is_visible="true"
       lpeversion="1.3"
       scale_width="1"
       interpolator_type="CentripetalCatmullRom"
       interpolator_beta="0.2"
       start_linecap_type="zerowidth"
       end_linecap_type="zerowidth"
       offset_points="0.14500729,5.70351 | 0.48233663,6.6263948 | 0.80602203,3.0710696"
       linejoin_type="round"
       miter_limit="4"
       not_jump="false"
       sort_points="true"
       message="&lt;b&gt;Ctrl + click&lt;/b&gt; on existing node and move it" />
    <inkscape:path-effect
       effect="powerstroke"
       id="path-effect5"
       is_visible="true"
       lpeversion="1.3"
       scale_width="1.754386"
       interpolator_type="CentripetalCatmullRom"
       interpolator_beta="0.36140351"
       start_linecap_type="zerowidth"
       end_linecap_type="zerowidth"
       offset_points="0.31761225,2.5 | 0.80309857,4.77462 | 1.4954589,4.7043533"
       linejoin_type="round"
       miter_limit="4"
       not_jump="false"
       sort_points="true"
       message="&lt;b&gt;Ctrl + click&lt;/b&gt; on existing node and move it" />
    <inkscape:path-effect
       effect="powerstroke"
       id="path-effect6-2"
       is_visible="true"
       lpeversion="1.3"
       scale_width="1"
       interpolator_type="CentripetalCatmullRom"
       interpolator_beta="0.2"
       start_linecap_type="zerowidth"
       end_linecap_type="zerowidth"
       offset_points="0.14500729,5.70351 | 0.48233663,6.6263948 | 0.80602203,3.0710696"
       linejoin_type="round"
       miter_limit="4"
       not_jump="false"
       sort_points="true"
       message="&lt;b&gt;Ctrl + click&lt;/b&gt; on existing node and move it" />
  </defs>
  <g
     inkscape:label="Layer 1"
     inkscape:groupmode="layer"
     id="layer1">
    <path
       id="path5"
       style="fill:#ffffff;fill-opacity:1;fill-rule:nonzero;stroke:none;stroke-width:7.66688;stroke-linecap:square;stroke-miterlimit:4.01;stroke-opacity:1"
       d="M 10.684617,8.9004318 C 12.855838,12.855382 18.480443,24.142334 23.71196,32.6309 c 6.342668,10.291499 13.728237,22.010816 22.949219,33.42578 3.181327,3.938272 6.689542,8.199179 10.402344,12.529297 l -0.259766,-0.283202 c 3.315866,4.662736 7.385232,9.270998 12.060548,11.839844 0.66569,0.365762 1.411447,0.690674 2.201172,0.990234 -0.06364,-2.494869 0.637177,-4.682848 1.265625,-6.638673 0.823592,-2.563143 1.807998,-5.170769 1.773437,-5.017577 a 4.3334603,4.3334603 0 0 1 3.271485,-3.271485 c -0.112522,0.02538 1.506736,-0.538452 3.205077,-1.15039 1.698342,-0.611938 3.750919,-1.306678 5.998047,-1.654297 0.385412,-0.05962 0.778714,-0.110389 1.179688,-0.146485 -2.00498,-4.911633 -6.06152,-9.470235 -10.265626,-13.294922 A 0.27820716,0.00997993 45.588918 0 0 77.235398,59.675822 C 73.153714,55.691517 69.126338,51.915035 65.401413,48.486368 54.604828,38.548479 43.385529,30.4248 33.52446,23.431682 25.390919,17.663663 14.491323,11.322171 10.684617,8.9004318 Z" />
    <path
       style="fill:#ffffff;fill-opacity:1;fill-rule:nonzero;stroke:none;stroke-width:5;stroke-linecap:square;stroke-miterlimit:4.01;stroke-opacity:1"
       d="m 65.563826,70.534682 c -0.247458,1.096872 -1.966028,4.49697 -1.484751,6.58123 0.538108,2.330376 3.062271,4.95965 5.275373,6.580529 2.259959,1.655198 5.704357,2.418695 8.202177,3.174189 2.013662,0.609054 4.650321,1.03103 5.580385,1.237236 -0.206206,-0.930064 -0.628182,-3.566723 -1.237236,-5.580385 -0.755494,-2.49782 -1.518991,-5.942218 -3.174189,-8.202177 -1.620879,-2.213102 -4.250153,-4.737265 -6.580529,-5.275373 -2.08426,-0.481277 -5.484358,1.237293 -6.58123,1.484751 z"
       id="path6"
       inkscape:path-effect="#path-effect6"
       inkscape:original-d="M 65.563826,70.534682 83.13701,88.107866"
       transform="matrix(1.8453524,0,0,1.8453524,-42.657594,-49.730337)" />
  </g>
</svg>
